<svg width="100" height="100" viewBox="0 0 100 100" fill="none" xmlns="http://www.w3.org/2000/svg">
<g clip-path="url(#clip0_29_348)">
<path fill-rule="evenodd" clip-rule="evenodd" d="M50 100C40.111 100 30.444 97.0676 22.2215 91.5735C13.9991 86.0794 7.59043 78.2705 3.80605 69.1342C0.021664 59.9979 -0.968503 49.9446 0.960758 40.2455C2.89002 30.5465 7.65206 21.6373 14.6447 14.6447C21.6373 7.65206 30.5465 2.89002 40.2455 0.960758C49.9446 -0.968503 59.9979 0.021664 69.1342 3.80605C78.2705 7.59043 86.0794 13.9991 91.5735 22.2215C97.0676 30.444 100 40.111 100 50C100 63.2608 94.7322 75.9785 85.3554 85.3554C75.9785 94.7322 63.2608 100 50 100ZM50 4.76193C41.0528 4.76193 32.3064 7.41509 24.8671 12.3859C17.4277 17.3567 11.6294 24.422 8.20547 32.6882C4.78151 40.9543 3.88564 50.0502 5.63117 58.8255C7.37669 67.6009 11.6852 75.6615 18.0119 81.9882C24.3385 88.3148 32.3992 92.6234 41.1745 94.3689C49.9498 96.1144 59.0457 95.2185 67.3119 91.7946C75.5781 88.3706 82.6433 82.5723 87.6141 75.133C92.5849 67.6936 95.2381 58.9473 95.2381 50C95.2381 38.0021 90.472 26.4956 81.9882 18.0119C73.5044 9.52807 61.9979 4.76193 50 4.76193ZM88.0953 52.381H85.7143C85.0828 52.381 84.4772 52.1301 84.0307 51.6836C83.5842 51.2371 83.3334 50.6315 83.3334 50C83.3334 49.3686 83.5842 48.7629 84.0307 48.3164C84.4772 47.8699 85.0828 47.6191 85.7143 47.6191H88.0953C88.7267 47.6191 89.3323 47.8699 89.7788 48.3164C90.2254 48.7629 90.4762 49.3686 90.4762 50C90.4762 50.6315 90.2254 51.2371 89.7788 51.6836C89.3323 52.1301 88.7267 52.381 88.0953 52.381ZM73.7595 71.9048C73.6851 72.3675 73.4678 72.7954 73.1381 73.1286C72.7902 73.4711 72.3431 73.6951 71.8604 73.7687C71.3777 73.8422 70.8842 73.7615 70.45 73.5381L70.5881 73.6786L70.6072 73.6976C70.2215 73.5381 69.8786 73.3881 69.5024 73.2334C61.3373 70.021 53.4752 66.0863 46.0095 61.4762C44.4822 60.5471 43.0513 59.4679 41.7381 58.2548C41.631 58.1524 35.8143 52.5119 26.2976 29.3857L26.4572 29.5453C26.4334 29.4976 26.4286 29.4453 26.4095 29.3976C26.1947 28.9001 26.1627 28.3427 26.3191 27.8238C26.4156 27.4598 26.6033 27.1263 26.8643 26.8548C27.203 26.5214 27.6366 26.3011 28.1055 26.2239C28.5744 26.1468 29.0557 26.2166 29.4834 26.4238C29.5061 26.4303 29.5283 26.4383 29.55 26.4476L29.4953 26.3881L29.3929 26.2881C52.5191 35.8119 58.1595 41.6214 58.2619 41.7286C58.3643 41.8357 64.1857 47.4738 73.7024 70.5976L73.5976 70.4929L73.5429 70.4405C73.5891 70.5535 73.6273 70.6697 73.6572 70.7881C73.781 71.1466 73.8161 71.5298 73.7595 71.9048ZM54.8714 45.0786C54.8214 45.0286 50.0714 40.4905 32.9976 33C40.4881 50.0738 45.0334 54.8262 45.1286 54.9238C45.1786 54.9738 49.9286 59.5143 67.0024 67.0024C59.5238 49.9262 54.9667 45.1762 54.8714 45.0786ZM50 47.6191C50.4709 47.6191 50.9313 47.7587 51.3228 48.0203C51.7144 48.282 52.0195 48.6538 52.1997 49.0889C52.3799 49.5239 52.4271 50.0027 52.3352 50.4645C52.2434 50.9264 52.0166 51.3506 51.6836 51.6836C51.3506 52.0166 50.9264 52.2434 50.4645 52.3352C50.0027 52.4271 49.5239 52.3799 49.0889 52.1997C48.6538 52.0195 48.282 51.7144 48.0203 51.3228C47.7587 50.9313 47.6191 50.4709 47.6191 50C47.6191 49.3686 47.8699 48.7629 48.3164 48.3164C48.7629 47.8699 49.3686 47.6191 50 47.6191ZM50 16.6667C49.3686 16.6667 48.7629 16.4158 48.3164 15.9693C47.8699 15.5228 47.6191 14.9172 47.6191 14.2857V11.9048C47.6191 11.2733 47.8699 10.6677 48.3164 10.2212C48.7629 9.77468 49.3686 9.52383 50 9.52383C50.6315 9.52383 51.2371 9.77468 51.6836 10.2212C52.1301 10.6677 52.381 11.2733 52.381 11.9048V14.2857C52.381 14.9172 52.1301 15.5228 51.6836 15.9693C51.2371 16.4158 50.6315 16.6667 50 16.6667ZM50 83.3334C50.6315 83.3334 51.2371 83.5842 51.6836 84.0307C52.1301 84.4772 52.381 85.0828 52.381 85.7143V88.0953C52.381 88.7267 52.1301 89.3323 51.6836 89.7788C51.2371 90.2254 50.6315 90.4762 50 90.4762C49.3686 90.4762 48.7629 90.2254 48.3164 89.7788C47.8699 89.3323 47.6191 88.7267 47.6191 88.0953V85.7143C47.6191 85.0828 47.8699 84.4772 48.3164 84.0307C48.7629 83.5842 49.3686 83.3334 50 83.3334ZM14.2857 52.381H11.9048C11.2733 52.381 10.6677 52.1301 10.2212 51.6836C9.77468 51.2371 9.52383 50.6315 9.52383 50C9.52383 49.3686 9.77468 48.7629 10.2212 48.3164C10.6677 47.8699 11.2733 47.6191 11.9048 47.6191H14.2857C14.9172 47.6191 15.5228 47.8699 15.9693 48.3164C16.4158 48.7629 16.6667 49.3686 16.6667 50C16.6667 50.6315 16.4158 51.2371 15.9693 51.6836C15.5228 52.1301 14.9172 52.381 14.2857 52.381Z" fill="#088C29"/>
</g>
<defs>
<clipPath id="clip0_29_348">
<rect width="100" height="100" fill="white"/>
</clipPath>
</defs>
</svg>
