<svg width="100" height="100" viewBox="0 0 100 100" fill="none" xmlns="http://www.w3.org/2000/svg">
<g clip-path="url(#clip0_29_343)">
<path d="M63.4195 34.1007C60.9619 33.6921 55.305 33.6472 50.5421 34.6851C50.2371 34.4836 49.9312 34.2752 49.6296 34.0898C48.7089 33.5259 47.806 33.0492 46.9091 32.6898C46.0396 32.3439 45.1726 32.1056 44.2656 32.0578V32.0539C42.907 31.9435 41.588 31.8945 40.3753 31.8945C38.529 31.8972 36.954 31.9994 35.7869 32.1941H35.7915C35.6302 32.2187 35.4533 32.2338 35.2611 32.2338C34.2525 32.2459 32.8564 31.7666 31.5898 31.0746C30.7359 30.617 29.6777 30.8593 29.1083 31.6439L15.207 50.8146C14.7335 51.467 14.7165 52.3509 15.1626 53.0238C15.5154 53.5523 15.8103 54.1009 16.005 54.65C16.2849 55.425 16.6902 56.1291 17.158 56.8142C17.6263 57.4965 18.1611 58.1584 18.7193 58.7904L18.938 59C18.938 59 19.939 59.8254 21.5339 61.1382C21.1177 61.7349 20.889 62.4431 20.8808 63.1894C20.8706 64.1728 21.2431 65.1045 21.9324 65.8086C22.6324 66.5236 23.5681 66.9172 24.5685 66.9172C25.2693 66.9172 25.9392 66.7156 26.5228 66.3464C26.1328 66.9347 25.9162 67.6199 25.908 68.3404C25.897 69.3238 26.2708 70.2541 26.9593 70.9568C27.658 71.6732 28.5945 72.0668 29.5955 72.0668C30.3818 72.0668 31.1261 71.8107 31.754 71.3531C30.6115 72.7859 30.6734 74.8763 31.9869 76.2207C32.6857 76.9343 33.6212 77.3279 34.6208 77.3279H34.6216C35.5913 77.3279 36.5079 76.9535 37.2052 76.2711L37.8869 75.5941C37.6015 76.1171 37.4312 76.6972 37.4244 77.3089C37.4142 78.2935 37.7867 79.2238 38.4757 79.9279C39.1751 80.6416 40.1115 81.0351 41.1119 81.0351C42.0808 81.0351 42.9966 80.6621 43.7001 79.9756L44.115 79.5547C44.3226 79.7181 44.5121 79.8652 44.6665 79.9851C44.7931 80.0804 44.9009 80.1623 44.9996 80.2332L45.146 80.3367L45.3537 80.4648C46.1333 80.8923 46.879 81.0777 47.472 81.2084C47.7675 81.2697 48.0208 81.3119 48.2087 81.3377L48.4376 81.3677L48.5091 81.3746L48.5363 81.3773L48.5533 81.38L48.5716 81.3814L48.5962 81.3828C48.6187 81.3828 48.6078 81.3855 48.7261 81.3882L48.8658 81.3828C50.1646 81.2875 51.3943 80.8406 52.4037 80.0699C52.8052 79.7621 53.1568 79.3902 53.4714 78.9832C54.0931 79.1847 54.7515 79.3045 55.4367 79.3045C58.2156 79.3033 60.5542 77.5312 61.4599 75.0662C61.5607 75.0593 61.6609 75.0552 61.7601 75.0295C62.1128 75.0935 62.4705 75.1398 62.8408 75.1398C65.5982 75.1371 67.9318 73.3994 68.8525 70.9668C68.8587 70.9613 68.8648 70.9588 68.8708 70.9545L69.0872 70.975C72.6494 70.975 75.5328 68.0888 75.5341 64.5289C75.5363 63.54 75.3994 62.4465 75.0228 61.3091C77.4675 59.1492 81.0501 55.8123 81.6978 54.0009C82.0097 53.1293 83.7632 51.0388 84.2726 50.3263L70.4794 31.3041C68.7203 32.3002 65.3064 34.4168 63.4195 34.1007ZM71.6646 64.5281C71.6626 65.9513 70.5111 67.1035 69.0876 67.1062C68.7349 67.1062 68.4054 67.0355 68.0984 66.9074C68.0677 66.8937 68.0357 66.891 68.005 66.8814L65.6148 63.9736C65.0101 63.2736 63.9511 63.1947 63.2503 63.7992C62.549 64.4039 62.4714 65.4636 63.0767 66.165L65.3886 68.9828C65.2408 70.2644 64.1636 71.2681 62.841 71.2695C62.213 71.2681 61.6562 71.0449 61.2005 70.6703L58.9064 67.8726C58.3009 67.1726 57.2419 67.0951 56.5414 67.6998C55.8398 68.3045 55.7628 69.3642 56.3675 70.064L57.9658 72.0554C57.963 72.1793 57.9509 72.3033 57.9726 72.4273C58.0005 72.584 58.0134 72.7254 58.0134 72.8562C58.0115 74.2808 56.8593 75.4316 55.4367 75.4343C55.0648 75.4343 54.7224 75.3486 54.4064 75.2097L51.6103 72.2707C50.9355 71.6359 49.8746 71.6687 49.2398 72.3441C48.6044 73.0183 48.6372 74.0806 49.3113 74.7138L50.6234 76.2529C50.4919 76.5349 50.3169 76.7896 50.0507 76.9964C49.7095 77.258 49.2404 77.4377 48.7066 77.4976C48.5507 77.4746 48.3388 77.439 48.0869 77.3793C47.7744 77.3086 47.4447 77.1927 47.2738 77.1027C47.2146 77.0593 47.0634 76.9476 46.8449 76.7757C46.7208 76.6804 46.58 76.5716 46.4234 76.4463C46.7066 75.256 46.4015 73.9511 45.483 73.0115C44.7835 72.2964 43.8472 71.9029 42.8468 71.9029C42.2843 71.9029 41.7451 72.0418 41.2492 72.283L41.2343 72.2707L41.2513 72.2515C41.9548 71.5625 42.3484 70.6418 42.3591 69.6558C42.3693 68.6711 41.9955 67.7408 41.3064 67.038C40.6076 66.3244 39.6708 65.9295 38.671 65.9295C37.8892 65.9295 37.1484 66.1826 36.5232 66.6349C37.029 65.9974 37.3228 65.2238 37.3316 64.3972C37.3425 63.4125 36.9687 62.4822 36.28 61.7795C35.5808 61.0631 34.6445 60.6695 33.6441 60.6695C32.6751 60.6695 31.7591 61.0427 31.0619 61.7263L30.4402 62.3447C31.207 60.9554 31.03 59.1767 29.8654 57.9865C29.1654 57.2714 28.229 56.8779 27.2287 56.8779C26.2597 56.8779 25.3437 57.2509 24.6451 57.9347L24.2337 58.3474C23.9415 58.1062 23.6548 57.8707 23.4015 57.6623C22.4496 56.8804 21.7937 56.3384 21.5302 56.1205C21.0849 55.6125 20.6728 55.1017 20.3507 54.6279C20.0048 54.1267 19.7597 53.6623 19.6494 53.3476C19.4872 52.8927 19.2939 52.4652 19.0835 52.0593L31.3042 35.208C32.5124 35.7132 33.8341 36.0931 35.2609 36.1029C35.6408 36.1029 36.0296 36.0755 36.4238 36.0103H36.4287C37.2423 35.8714 38.6927 35.7623 40.3749 35.7652C41.4843 35.7625 42.7046 35.8088 43.9521 35.9095L44.0372 35.915C44.3437 35.9232 44.8539 36.0322 45.4734 36.2828L45.6136 36.3468C40.3933 38.7043 32.9953 43.2398 30.564 44.0513C27.7876 44.9761 27.5554 48.6793 33.8021 49.3724C40.0499 50.0683 45.6027 46.1324 46.9906 45.4406C47.9869 44.9422 54.3163 45.5509 57.8222 45.9349C59.3681 47.4617 60.7232 48.8781 61.7113 49.9486L69.4111 59.3623L69.4451 59.4006C70.4318 60.5431 70.9671 61.4705 71.2708 62.266C71.5714 63.0613 71.6626 63.7476 71.6646 64.5281Z" fill="#088C29"/>
<path d="M99.7345 44.8481L81.1277 19.1862C80.6775 18.5637 79.8099 18.4276 79.1888 18.877L70.947 24.8534C70.3259 25.3028 70.1876 26.1718 70.6384 26.7928L89.2455 52.4548C89.6954 53.0759 90.563 53.2147 91.1841 52.7653L99.4273 46.7878C100.047 46.3366 100.186 45.469 99.7345 44.8481ZM93.4035 47.1538C92.3697 47.9028 90.922 47.6714 90.1714 46.6376C89.4216 45.604 89.6527 44.1575 90.6876 43.4071C91.722 42.6567 93.1685 42.8882 93.9189 43.9204C94.6687 44.9555 94.4378 46.4034 93.4035 47.1538Z" fill="#088C29"/>
<path d="M29.0541 24.8531L20.8107 18.8768C20.191 18.4274 19.3228 18.5635 18.872 19.186L0.264412 44.8481C-0.18637 45.4692 -0.0461353 46.3367 0.573591 46.7875L8.81539 52.7651C9.43648 53.2145 10.3039 53.0756 10.7533 52.4545L29.3611 26.7926C29.8119 26.1715 29.6736 25.3026 29.0541 24.8531ZM23.5457 27.7188C22.7959 28.7526 21.3488 28.984 20.3144 28.2336C19.2793 27.4846 19.0486 26.0354 19.7988 25.0031C20.5484 23.968 21.9957 23.7365 23.03 24.4871C24.0658 25.2373 24.2947 26.6836 23.5457 27.7188Z" fill="#088C29"/>
</g>
<defs>
<clipPath id="clip0_29_343">
<rect width="100" height="100" fill="white"/>
</clipPath>
</defs>
</svg>
