<svg width="100" height="100" viewBox="0 0 100 100" fill="none" xmlns="http://www.w3.org/2000/svg">
<g clip-path="url(#clip0_29_339)">
<path d="M97.3404 90.6915H5.31915V6.64895C5.31915 5.18007 4.12872 3.98938 2.65957 3.98938C1.19069 3.98938 0 5.18007 0 6.64895V93.3511C0 94.8197 1.19069 96.0107 2.65957 96.0107H97.3404C98.8093 96.0107 100 94.8197 100 93.3511C100 91.8822 98.8093 90.6915 97.3404 90.6915Z" fill="#088C29"/>
<path d="M7.64844 84.0758C7.64844 84.2229 7.76732 84.3418 7.91439 84.3418H92.0857C92.2327 84.3418 92.3516 84.2229 92.3516 84.0758C92.3516 83.929 92.2327 83.8099 92.0857 83.8099H88.1051C88.3825 83.5891 88.5639 83.2524 88.5639 82.8708V68.3843H92.0857C92.2327 68.3843 92.3516 68.2655 92.3516 68.1184C92.3516 67.9716 92.2327 67.8524 92.0857 67.8524H88.5639V52.4269H92.0857C92.2327 52.4269 92.3516 52.308 92.3516 52.1609C92.3516 52.0141 92.2327 51.895 92.0857 51.895H88.5639V39.7689C88.5639 39.1035 88.0242 38.5639 87.3588 38.5639H70.487C69.8216 38.5639 69.2819 39.1035 69.2819 39.7689V51.895H36.4599L50.7136 47.925C51.0479 47.8317 51.3607 47.6745 51.6341 47.4612L65.7498 36.4694H92.0857C92.2327 36.4694 92.3516 36.3506 92.3516 36.2035C92.3516 36.0567 92.2327 35.9375 92.0857 35.9375H77.1522C77.4628 35.7998 77.7141 35.5466 77.8458 35.2232L83.8168 20.512H92.0859C92.233 20.512 92.3519 20.3931 92.3519 20.246C92.3519 20.0992 92.233 19.9801 92.0859 19.9801H83.9264C83.9264 19.6889 83.8314 19.4008 83.6466 19.1636C83.3546 18.7889 82.8833 18.5968 82.4144 18.6636L72.9298 19.9801H7.91439C7.76732 19.9801 7.64844 20.0992 7.64844 20.246C7.64844 20.3931 7.76732 20.512 7.91439 20.512H69.0979L66.6543 20.8511C66.1835 20.9163 65.7838 21.2277 65.6051 21.6679C65.4264 22.108 65.496 22.6101 65.7881 22.9851L69.0423 27.1644L57.7758 35.9373H7.91439C7.76732 35.9373 7.64844 36.0564 7.64844 36.2032C7.64844 36.3503 7.76732 36.4692 7.91439 36.4692H57.0923L48.7804 42.9415L17.12 51.7596C16.9921 51.7952 16.8705 51.8426 16.7527 51.895H7.91439C7.76732 51.895 7.64844 52.0141 7.64844 52.1609C7.64844 52.308 7.76732 52.4269 7.91439 52.4269H15.9681C15.3024 53.0835 15.0027 54.071 15.2713 55.0354C15.599 56.212 16.6679 56.9822 17.8319 56.9822C18.0684 56.9822 18.3085 56.9503 18.5468 56.8841L34.55 52.4269H69.2819V67.8524H59.641V55.5269C59.641 54.8615 59.1014 54.3218 58.4359 54.3218H41.5641C40.8987 54.3218 40.3591 54.8615 40.3591 55.5269V67.8524H30.7181V63.1732C30.7181 62.5077 30.1785 61.9681 29.5131 61.9681H12.6413C11.9758 61.9681 11.4362 62.5077 11.4362 63.1732V67.8524H7.91439C7.76732 67.8524 7.64844 67.9716 7.64844 68.1184C7.64844 68.2655 7.76732 68.3843 7.91439 68.3843H11.4362V82.8708C11.4362 83.2524 11.6176 83.5891 11.895 83.8099H7.91439C7.76732 83.8099 7.64844 83.929 7.64844 84.0758ZM72.3099 31.3612L75.5641 35.5402C75.7016 35.7163 75.879 35.8503 76.0764 35.9375H66.4327L72.3099 31.3612ZM69.2819 68.3843V82.8708C69.2819 83.2524 69.4633 83.5891 69.7407 83.8099H59.1825C59.4599 83.5891 59.6413 83.2524 59.6413 82.8708V68.3843H69.2819ZM30.7181 82.8708V68.3843H40.3591V82.8708C40.3591 83.2524 40.5405 83.5891 40.8179 83.8099H30.2596C30.5367 83.5891 30.7181 83.2524 30.7181 82.8708Z" fill="#088C29"/>
</g>
<defs>
<clipPath id="clip0_29_339">
<rect width="100" height="100" fill="white"/>
</clipPath>
</defs>
</svg>
