<svg width="1659" height="753" viewBox="0 0 1659 753" fill="none" xmlns="http://www.w3.org/2000/svg">
<g clip-path="url(#clip0_20_2)">
<path d="M835.596 188.081C820.7 188.081 808.626 200.403 808.626 215.601C808.625 230.826 820.742 243.122 835.596 243.122C850.345 243.122 862.565 230.925 862.565 215.602C862.565 200.403 850.49 188.081 835.596 188.081Z" fill="#088C29"/>
<path d="M907.873 331.429C910.436 328.26 911.417 324.058 910.529 320.05C910.252 318.804 903.735 289.427 900.617 279.261C897.797 270.065 895.054 263.404 890.107 258.616C883.988 252.693 876.72 251.895 870.416 251.895H857.078C855.374 256.439 842.775 290.024 840.946 294.899L844.75 276.617C845.016 275.333 844.823 273.994 844.203 272.844L838.981 263.151L843.624 254.534C844.316 253.25 843.404 251.675 841.967 251.675H829.223C827.788 251.675 826.874 253.249 827.566 254.534L832.209 263.151L826.966 272.879C826.358 274.007 826.159 275.319 826.405 276.582L829.73 294.899C828.067 290.547 815.57 256.618 813.765 251.894H800.552C783.656 251.894 769.602 265.92 769.517 283.16V380.714C769.495 385.243 771.461 389.249 774.842 391.663C774.842 396.575 774.842 400.613 774.842 411.431H774.433C771.161 411.431 768.509 414.137 768.509 417.475V467.553C768.509 470.891 771.161 473.598 774.433 473.598H788.696C791.967 473.598 794.62 470.892 794.62 467.553V417.475C794.62 414.361 792.312 411.8 789.348 411.468C789.348 400.556 789.348 402.919 789.348 391.928C792.909 389.574 795.521 385.5 795.543 380.847V283.294C795.55 281.879 796.917 280.738 798.303 280.742C799.688 280.747 800.808 281.893 800.808 283.307V378.796C799.229 406.524 799.775 396.935 799.36 404.235C803.107 407.383 805.5 412.149 805.5 417.475V467.554C805.5 474.793 801.077 480.995 794.846 483.505L793.589 505.59C793.069 514.709 800.165 522.449 809.192 522.449C817.402 522.449 824.285 515.91 824.767 507.439C824.816 506.578 832.044 379.929 832.044 379.148H838.79C838.791 379.928 846.018 506.578 846.067 507.439C846.566 516.2 853.921 522.928 862.562 522.422C871.172 521.912 877.746 514.376 877.245 505.59C877.18 504.45 870.014 378.531 869.966 377.906C871.415 376.678 868.489 380.128 907.873 331.429ZM869.739 336.857V280.14C869.739 279.693 869.916 279.266 870.23 278.954C870.544 278.642 870.968 278.472 871.405 278.483C871.414 278.483 871.423 278.484 871.432 278.484C872.103 278.502 872.685 278.959 872.876 279.616C874.426 284.957 881.189 308.413 883.722 319.569L869.739 336.857Z" fill="#088C29"/>
</g>
<path d="M150.2 500H17.8C16.7333 500 16.2 499.333 16.2 498L16.6 216.6C16.6 215.533 17.1333 215 18.2 215H149.8C150.867 215 151.4 215.667 151.4 217V262.8C151.4 263.867 150.867 264.4 149.8 264.4H65.8V328.4H149.8C150.867 328.4 151.4 328.933 151.4 330L151.8 376.4C151.8 377.467 151.267 378 150.2 378H65.8V449.6H150.2C151.267 449.6 151.8 450.267 151.8 451.6V498.4C151.8 499.467 151.267 500 150.2 500ZM174.4 498L225.2 216.6C225.467 215.533 226.133 215 227.2 215H286.6C287.667 215 288.333 215.533 288.6 216.6L337.4 498C337.533 499.333 337 500 335.8 500H290.4C289.067 500 288.333 499.333 288.2 498L283.8 468H228L223.6 498C223.467 499.333 222.8 500 221.6 500H176C174.933 500 174.4 499.333 174.4 498ZM258.8 309.2L256.4 294L254.6 309.2L236.2 424.2H275.6L258.8 309.2ZM438.4 504C423.6 504 410.067 500.267 397.8 492.8C385.667 485.333 376 475.333 368.8 462.8C361.733 450.133 358.2 436.067 358.2 420.6L358.6 292.8C358.6 277.6 362.067 263.867 369 251.6C375.933 239.2 385.467 229.267 397.6 221.8C409.867 214.2 423.467 210.4 438.4 210.4C453.6 210.4 467.133 214.067 479 221.4C491 228.733 500.533 238.667 507.6 251.2C514.8 263.6 518.4 277.467 518.4 292.8V311.6C518.4 312.667 517.867 313.2 516.8 313.2H470.8C469.733 313.2 469.2 312.667 469.2 311.6V292.8C469.2 283.733 466.267 275.933 460.4 269.4C454.533 262.867 447.2 259.6 438.4 259.6C428.667 259.6 421.2 262.933 416 269.6C410.8 276.267 408.2 284 408.2 292.8V420.6C408.2 430.6 411.133 438.8 417 445.2C422.867 451.467 430 454.6 438.4 454.6C447.2 454.6 454.533 451.133 460.4 444.2C466.267 437.133 469.2 429.267 469.2 420.6V401.6C469.2 400.533 469.733 400 470.8 400H517.2C518.267 400 518.8 400.533 518.8 401.6V420.6C518.8 435.933 515.2 449.933 508 462.6C500.667 475.133 491 485.2 479 492.8C467 500.267 453.467 504 438.4 504ZM596.6 500H550.2C549.133 500 548.6 499.333 548.6 498L549 216.6C549 215.533 549.667 215 551 215H596.6C597.933 215 598.6 215.533 598.6 216.6L598.2 328H659.6V216.6C659.6 215.533 660.133 215 661.2 215H706.8C708.133 215 708.8 215.533 708.8 216.6L709.6 498C709.6 499.333 708.933 500 707.6 500H661.6C660.267 500 659.6 499.333 659.6 498V377.6H598.2V498C598.2 499.333 597.667 500 596.6 500Z" fill="#088C29"/>
<path d="M1027.88 504C1013.35 504 999.947 500.267 987.68 492.8C975.547 485.333 965.813 475.4 958.48 463C951.28 450.467 947.68 436.733 947.68 421.8V403C947.68 401.533 948.347 400.8 949.68 400.8H995.68C996.747 400.8 997.28 401.533 997.28 403V421.8C997.28 430.733 1000.28 438.467 1006.28 445C1012.28 451.4 1019.48 454.6 1027.88 454.6C1036.41 454.6 1043.68 451.333 1049.68 444.8C1055.68 438.133 1058.68 430.467 1058.68 421.8C1058.68 411.8 1052.15 403.067 1039.08 395.6C1036.95 394.267 1034.15 392.667 1030.68 390.8C1027.35 388.8 1023.35 386.533 1018.68 384C1014.01 381.467 1009.48 379 1005.08 376.6C1000.68 374.067 996.413 371.667 992.28 369.4C977.347 360.6 966.213 349.6 958.88 336.4C951.68 323.067 948.08 308.133 948.08 291.6C948.08 276.4 951.813 262.667 959.28 250.4C966.747 238.267 976.48 228.667 988.48 221.6C1000.61 214.4 1013.75 210.8 1027.88 210.8C1042.41 210.8 1055.75 214.4 1067.88 221.6C1080.01 228.933 1089.68 238.667 1096.88 250.8C1104.21 262.933 1107.88 276.533 1107.88 291.6V325.2C1107.88 326.267 1107.35 326.8 1106.28 326.8H1060.28C1059.21 326.8 1058.68 326.267 1058.68 325.2L1058.28 291.6C1058.28 282 1055.28 274.2 1049.28 268.2C1043.28 262.2 1036.15 259.2 1027.88 259.2C1019.48 259.2 1012.28 262.4 1006.28 268.8C1000.28 275.2 997.28 282.8 997.28 291.6C997.28 300.533 999.147 308 1002.88 314C1006.75 320 1013.75 325.733 1023.88 331.2C1024.95 331.733 1027.41 333.067 1031.28 335.2C1035.15 337.333 1039.41 339.733 1044.08 342.4C1048.88 344.933 1053.21 347.267 1057.08 349.4C1060.95 351.4 1063.28 352.6 1064.08 353C1077.68 360.6 1088.41 369.933 1096.28 381C1104.28 392.067 1108.28 405.667 1108.28 421.8C1108.28 437.4 1104.68 451.4 1097.48 463.8C1090.15 476.2 1080.41 486 1068.28 493.2C1056.15 500.4 1042.68 504 1027.88 504ZM1270.68 500H1138.28C1137.21 500 1136.68 499.333 1136.68 498L1137.08 216.6C1137.08 215.533 1137.61 215 1138.68 215H1270.28C1271.35 215 1271.88 215.667 1271.88 217V262.8C1271.88 263.867 1271.35 264.4 1270.28 264.4H1186.28V328.4H1270.28C1271.35 328.4 1271.88 328.933 1271.88 330L1272.28 376.4C1272.28 377.467 1271.75 378 1270.68 378H1186.28V449.6H1270.68C1271.75 449.6 1272.28 450.267 1272.28 451.6V498.4C1272.28 499.467 1271.75 500 1270.68 500ZM1442.68 500H1310.28C1309.21 500 1308.68 499.333 1308.68 498L1309.08 216.6C1309.08 215.533 1309.61 215 1310.68 215H1442.28C1443.35 215 1443.88 215.667 1443.88 217V262.8C1443.88 263.867 1443.35 264.4 1442.28 264.4H1358.28V328.4H1442.28C1443.35 328.4 1443.88 328.933 1443.88 330L1444.28 376.4C1444.28 377.467 1443.75 378 1442.68 378H1358.28V449.6H1442.68C1443.75 449.6 1444.28 450.267 1444.28 451.6V498.4C1444.28 499.467 1443.75 500 1442.68 500ZM1556.08 499.6L1482.68 500C1481.35 500 1480.68 499.333 1480.68 498L1481.48 216.6C1481.48 215.533 1482.01 215 1483.08 215L1559.68 214.6C1574.88 214.2 1588.61 217.667 1600.88 225C1613.28 232.333 1623.15 242.267 1630.48 254.8C1637.95 267.2 1641.68 280.933 1641.68 296V413.6C1641.68 429.333 1637.88 443.733 1630.28 456.8C1622.55 469.733 1612.28 480.067 1599.48 487.8C1586.68 495.4 1572.21 499.333 1556.08 499.6ZM1559.68 263.6L1531.08 264L1530.68 449.6H1556.08C1566.21 449.6 1574.75 446.067 1581.68 439C1588.61 431.933 1592.08 423.467 1592.08 413.6V295.6C1592.08 286.933 1588.88 279.4 1582.48 273C1576.08 266.467 1568.48 263.333 1559.68 263.6Z" fill="#088C29"/>
<defs>
<clipPath id="clip0_20_2">
<rect width="327.68" height="334.367" fill="white" transform="translate(675.84 188.081)"/>
</clipPath>
</defs>
</svg>
